<?xml version="1.0" encoding="UTF-8" standalone="no"?>
<!-- Created with Inkscape (http://www.inkscape.org/) -->

<svg
   xmlns:osb="http://www.openswatchbook.org/uri/2009/osb"
   xmlns:dc="http://purl.org/dc/elements/1.1/"
   xmlns:cc="http://creativecommons.org/ns#"
   xmlns:rdf="http://www.w3.org/1999/02/22-rdf-syntax-ns#"
   xmlns:svg="http://www.w3.org/2000/svg"
   xmlns="http://www.w3.org/2000/svg"
   xmlns:sodipodi="http://sodipodi.sourceforge.net/DTD/sodipodi-0.dtd"
   xmlns:inkscape="http://www.inkscape.org/namespaces/inkscape"
   width="210mm"
   height="210mm"
   viewBox="0 0 210 210"
   version="1.1"
   id="svg8"
   inkscape:version="0.92.3 (2405546, 2018-03-11)"
   sodipodi:docname="jquery.svg">
  <defs
     id="defs2">
    <linearGradient
       id="linearGradient4532"
       osb:paint="solid">
      <stop
         style="stop-color:#ffffff;stop-opacity:1;"
         offset="0"
         id="stop4530" />
    </linearGradient>
  </defs>
  <sodipodi:namedview
     id="base"
     pagecolor="#ffffff"
     bordercolor="#666666"
     borderopacity="1.0"
     inkscape:pageopacity="0.0"
     inkscape:pageshadow="2"
     inkscape:zoom="1.4"
     inkscape:cx="288.99588"
     inkscape:cy="337.04731"
     inkscape:document-units="mm"
     inkscape:current-layer="layer1"
     showgrid="false"
     inkscape:window-width="3000"
     inkscape:window-height="1875"
     inkscape:window-x="-13"
     inkscape:window-y="-13"
     inkscape:window-maximized="1"
     inkscape:pagecheckerboard="true"
     inkscape:measure-start="600.714,161.429"
     inkscape:measure-end="0,0" />
  <metadata
     id="metadata5">
    <rdf:RDF>
      <cc:Work
         rdf:about="">
        <dc:format>image/svg+xml</dc:format>
        <dc:type
           rdf:resource="http://purl.org/dc/dcmitype/StillImage" />
        <dc:title></dc:title>
      </cc:Work>
    </rdf:RDF>
  </metadata>
  <g
     inkscape:label="Layer 1"
     inkscape:groupmode="layer"
     id="layer1"
     transform="translate(0,-87)">
    <path
       style="fill:#ffffff;stroke-width:1;fill-opacity:1"
       d="m 17.566796,283.78828 c -0.593712,-0.0481 -1.079476,-0.12899 -1.079476,-0.1798 0,-0.0508 0.365502,-1.66775 0.812228,-3.5932 l 0.812227,-3.50083 0.949024,-0.13404 c 0.521962,-0.0737 1.511487,-0.21041 2.198943,-0.30375 l 1.24992,-0.16972 0.850697,-1.63351 c 1.273923,-2.44619 2.33015,-6.18297 3.364501,-11.90312 1.043443,-5.77044 1.35262,-7.15403 2.177503,-9.74446 l 0.575999,-1.80886 h 4.071985 c 2.23959,0 4.071984,0.0463 4.071984,0.10295 0,0.31146 -3.566856,16.70345 -4.336979,19.9312 -1.610559,6.7502 -2.309625,8.6617 -3.778335,10.33133 -2.110909,2.39967 -5.460075,3.13059 -11.940221,2.60581 z m 99.368334,-12.20229 c -1.56257,-0.0896 -3.42213,-0.3364 -4.13236,-0.54845 -2.47152,-0.73791 -4.45195,-2.91233 -4.97317,-5.4603 -0.63561,-3.10724 1.25251,-12.69585 3.34083,-16.96597 2.13531,-4.36621 7.33905,-7.35605 13.49644,-7.75448 5.14224,-0.33274 9.43738,1.61215 11.06143,5.00875 0.61189,1.27973 0.63664,1.46608 0.61117,4.60135 -0.0199,2.44628 -0.16504,3.9716 -0.57756,6.06841 l -0.55101,2.8008 -9.37157,0.061 -9.37158,0.0609 -0.23999,0.63926 c -0.318,0.847 -0.11474,2.3082 0.40435,2.90689 0.90283,1.04127 1.61806,1.14776 9.37925,1.39649 4.07017,0.13044 7.4427,0.27817 7.49451,0.32828 0.1054,0.10193 -1.15662,6.32313 -1.34054,6.60832 -0.16469,0.25537 -11.80052,0.44542 -15.2302,0.24876 z m 11.26224,-19.22055 c 0.2065,-0.845 -0.27479,-2.31946 -0.97487,-2.98656 -1.91514,-1.82493 -6.32177,-1.42425 -8.09144,0.73572 -0.56822,0.69355 -1.51384,2.36573 -1.51384,2.677 0,0.0693 2.35017,0.126 5.22261,0.126 h 5.2226 z m -77.621322,19.07213 c -5.02474,-0.4886 -8.472035,-3.40959 -9.618839,-8.15033 -1.076315,-4.44934 -0.433263,-11.01628 1.581297,-16.14844 2.205218,-5.61788 5.503454,-9.60876 9.741979,-11.78783 2.579494,-1.32614 4.788136,-1.86021 8.194116,-1.98141 2.748674,-0.0978 3.461076,-0.0444 5.105217,0.38259 5.102014,1.32506 8.247931,4.15772 9.836818,8.85732 0.590567,1.74677 0.684111,2.35643 0.68634,4.47312 0.0032,3.00687 -0.457432,5.02731 -2.633806,11.55331 -0.856211,2.56741 -1.613981,4.85181 -1.683933,5.07646 -0.114438,0.36751 0.06911,0.40845 1.831012,0.40845 1.62178,0 1.9582,0.0625 1.9582,0.36375 0,0.20007 -0.295572,1.59172 -0.656829,3.09256 -0.361254,1.50084 -0.721135,3.01763 -0.799733,3.37065 l -0.142904,0.64185 -11.301766,-0.0374 c -6.21597,-0.0206 -11.659697,-0.0722 -12.097169,-0.1147 z m 13.042961,-7.95861 c 0.686506,-2.33919 2.332201,-8.58495 2.996011,-11.37049 1.177131,-4.93959 0.93759,-6.92681 -1.085417,-9.0045 -1.331024,-1.36699 -2.465399,-1.73969 -5.295082,-1.73969 -2.274836,0 -2.627364,0.0605 -3.916638,0.67208 -3.076383,1.45933 -4.841804,4.72999 -6.199042,11.48447 -1.024391,5.09802 -0.84271,7.02811 0.815734,8.66599 1.501706,1.48309 2.352295,1.66527 7.864267,1.68433 4.28734,0.0148 4.710826,-0.0196 4.820167,-0.39219 z m 20.844564,7.84735 c -1.513835,-0.2582 -3.315388,-1.24068 -4.023583,-2.19426 -1.652483,-2.22507 -1.962459,-4.63982 -1.242498,-9.67925 0.493252,-3.45256 3.08483,-17.13361 3.319444,-17.52349 0.07114,-0.11821 1.815332,-0.21493 3.875987,-0.21493 h 3.746646 l -0.114374,0.75855 c -0.06291,0.4172 -0.176228,1.38873 -0.25183,2.15895 -0.0756,0.77023 -0.548158,3.23843 -1.050128,5.48491 -0.501968,2.24648 -1.057869,4.92475 -1.235335,5.95171 -0.332276,1.92282 -0.433267,6.02878 -0.180247,7.32808 l 0.143038,0.73453 4.099663,-0.0635 4.099661,-0.0635 0.729439,-3.3843 c 0.401193,-1.86137 1.476074,-6.87656 2.388631,-11.14487 l 1.659183,-7.76056 h 3.83787 c 3.54863,0 3.82895,0.0308 3.71966,0.40845 -0.065,0.22465 -1.40623,6.71026 -2.9805,14.41247 -1.57427,7.70221 -2.91965,14.24034 -2.98974,14.52917 l -0.12743,0.52515 -8.099849,-0.0273 c -4.454912,-0.015 -8.650583,-0.12122 -9.323708,-0.23603 z m 52.470587,0.13904 c 0,-0.0744 1.3806,-6.79486 3.06799,-14.93434 1.68739,-8.13948 3.06798,-14.86337 3.06798,-14.94199 0,-0.27801 19.61272,0.0308 20.48376,0.32257 1.83497,0.61457 2.73749,1.95256 3.27947,4.86182 0.17938,0.96285 0.32614,1.84643 0.32614,1.96351 0,0.12458 -3.66937,0.21287 -8.84696,0.21287 h -8.84695 l -0.25197,1.22535 c -0.13858,0.67395 -1.19541,5.74165 -2.34851,11.26157 l -2.09654,10.03621 -3.91721,0.0639 c -2.15446,0.0351 -3.9172,0.003 -3.9172,-0.0714 z m 24.44448,-1.5006 c 0.7747,-1.95809 1.05143,-4.23833 0.7806,-6.43218 -0.25469,-2.06308 -0.36602,-2.53069 -1.69367,-7.11397 -0.53919,-1.86137 -1.05228,-3.83068 -1.1402,-4.37626 l -0.15986,-0.99195 h 4.30023 4.30024 l 0.63755,2.21731 c 0.35066,1.21951 0.69997,2.21684 0.77624,2.21628 0.0763,-4.7e-4 2.88282,-4.09674 6.23677,-9.10261 l 6.09809,-9.1016 h 4.7669 c 3.74815,0 4.73239,0.0624 4.60541,0.29175 -0.0888,0.16047 -1.00953,1.60463 -2.04602,3.20926 -1.71287,2.65174 -3.53747,5.12234 -9.65283,13.07042 -4.24634,5.51893 -7.46742,11.04386 -9.04894,15.52112 l -0.65956,1.8672 -4.32771,0.0633 -4.32771,0.0633 z M 29.773448,248.19124 c 0.04999,-0.16046 0.308457,-1.28954 0.574375,-2.50905 0.265917,-1.21952 0.58368,-2.61117 0.706142,-3.09256 l 0.222656,-0.87525 h 4.081888 c 2.333113,0 4.081888,0.092 4.081888,0.21473 0,0.25392 -1.097907,5.55291 -1.273282,6.14543 -0.109427,0.3697 -0.517592,0.40845 -4.302726,0.40845 -3.242432,0 -4.161412,-0.0655 -4.090941,-0.29175 z m 75.117312,-30.29399 c -14.118656,-1.26232 -25.895464,-6.07396 -36.960752,-15.10102 -3.14943,-2.5693 -8.989604,-8.56258 -11.430078,-11.72972 -8.794735,-11.41343 -13.631596,-23.80428 -14.599911,-37.40137 -0.785547,-11.03065 1.766285,-21.52192 7.330161,-30.13624 1.766343,-2.73476 4.967784,-6.76794 5.685256,-7.1623 0.45903,-0.2523 0.483715,-0.22609 0.372961,0.39597 -0.955453,5.36635 -1.54994,9.44798 -1.77393,12.17945 -0.333899,4.07175 -0.15671,12.21967 0.339942,15.63198 1.838259,12.63 6.768649,23.12461 15.417004,32.81594 7.904926,8.85824 21.811044,18.25362 32.273517,21.80492 15.66161,5.31606 33.04464,4.41951 46.86577,-2.41714 4.66506,-2.30758 9.02222,-5.35707 12.42524,-8.69615 1.9701,-1.9331 1.99571,-1.84138 0.34469,1.23444 -2.71247,5.05325 -6.32205,9.68337 -10.60625,13.60493 -8.81046,8.06468 -18.50044,12.72224 -30.23007,14.5303 -3.56864,0.55008 -11.67328,0.78399 -15.45355,0.44601 z m 17.85422,-40.15261 C 112.8324,176.7736 103.45285,172.67496 95.872314,166.00192 83.649418,155.24229 77.857598,142.60339 78.37304,127.81503 c 0.06935,-1.98974 0.294859,-4.51046 0.501127,-5.60161 1.075336,-5.68849 3.531897,-10.99029 7.439811,-16.05674 0.623291,-0.80808 1.157832,-1.43826 1.187869,-1.4004 0.03004,0.0378 -0.129612,1.17163 -0.354777,2.51952 -2.853077,17.07925 1.184215,31.75228 11.721347,42.59977 7.455983,7.67558 18.798123,14.17148 28.293643,16.20441 5.32531,1.14012 11.84243,1.23965 16.67588,0.25467 7.84062,-1.59778 14.94323,-5.4579 20.62275,-11.20802 l 1.73273,-1.75427 -0.76454,1.71601 c -4.7154,10.58381 -13.83776,18.02453 -26.06911,21.26349 -4.92589,1.30441 -11.71079,1.87318 -16.61479,1.39278 z m 14.87096,-35.38276 c -7.67708,-0.7978 -14.12158,-3.82436 -19.06781,-8.9549 -4.42669,-4.59165 -7.87195,-11.01547 -9.01491,-16.80869 -0.29174,-1.47871 -0.35281,-2.66839 -0.26181,-5.10037 0.13507,-3.6095 0.57302,-5.50452 1.99045,-8.61257 0.87766,-1.92446 2.91319,-5.290963 3.08961,-5.109773 0.0506,0.0519 -0.0101,0.81905 -0.13474,1.70475 -0.33303,2.366253 -0.28246,6.903973 0.10424,9.352633 1.55813,9.86659 8.15281,18.31712 18.40892,23.5895 4.79081,2.46282 8.47594,3.39625 13.40823,3.39625 2.3879,0 3.75923,-0.12531 5.49701,-0.50232 2.52449,-0.54769 5.68816,-1.62409 7.42249,-2.5254 0.60614,-0.31501 1.14651,-0.5271 1.20082,-0.47133 0.0543,0.0558 -0.32787,0.66676 -0.84929,1.35775 -3.72786,4.94016 -8.07685,7.57763 -14.00927,8.49601 -2.00793,0.31085 -5.73738,0.40114 -7.78394,0.18846 z"
       id="path4549"
       inkscape:connector-curvature="0" />
  </g>
</svg>
